<svg width="178" height="68" viewBox="0 0 178 68" fill="none" xmlns="http://www.w3.org/2000/svg">
<circle cx="34" cy="34" r="33" stroke="#E26BE9" stroke-width="2"/>
<circle cx="34.5" cy="45.5" r="21.5" stroke="#E26BE9" stroke-width="2"/>
<circle cx="34.5" cy="56.5" r="10.5" stroke="#E26BE9" stroke-width="2"/>
<path d="M88.08 47.288C87.0773 47.288 86.096 47.2027 85.136 47.032C84.176 46.8613 83.28 46.616 82.448 46.296C81.6373 45.976 80.9013 45.5707 80.24 45.08C79.984 44.888 79.8027 44.6747 79.696 44.44C79.6107 44.184 79.5893 43.9387 79.632 43.704C79.696 43.448 79.8027 43.2347 79.952 43.064C80.1227 42.8933 80.3253 42.7973 80.56 42.776C80.7947 42.7547 81.0507 42.8293 81.328 43C82.288 43.6827 83.312 44.184 84.4 44.504C85.488 44.8027 86.7147 44.952 88.08 44.952C90 44.952 91.4187 44.6 92.336 43.896C93.2747 43.1707 93.744 42.2213 93.744 41.048C93.744 40.088 93.4027 39.3413 92.72 38.808C92.0587 38.2533 90.9387 37.816 89.36 37.496L86.032 36.824C84.0267 36.3973 82.5227 35.704 81.52 34.744C80.5387 33.7627 80.048 32.4613 80.048 30.84C80.048 29.8373 80.2507 28.9307 80.656 28.12C81.0613 27.288 81.6267 26.584 82.352 26.008C83.0773 25.4107 83.9413 24.952 84.944 24.632C85.9467 24.312 87.056 24.152 88.272 24.152C89.616 24.152 90.864 24.344 92.016 24.728C93.1893 25.0907 94.2453 25.6453 95.184 26.392C95.4187 26.584 95.5787 26.808 95.664 27.064C95.7493 27.2987 95.76 27.5333 95.696 27.768C95.632 27.9813 95.5147 28.1627 95.344 28.312C95.1947 28.4613 94.992 28.5467 94.736 28.568C94.5013 28.5893 94.2347 28.504 93.936 28.312C93.0827 27.672 92.1973 27.2133 91.28 26.936C90.3627 26.6373 89.3493 26.488 88.24 26.488C87.1093 26.488 86.128 26.6587 85.296 27C84.4853 27.3413 83.8453 27.8427 83.376 28.504C82.928 29.144 82.704 29.8907 82.704 30.744C82.704 31.768 83.0133 32.5787 83.632 33.176C84.272 33.7733 85.3067 34.2107 86.736 34.488L90.064 35.192C92.2187 35.64 93.808 36.3227 94.832 37.24C95.8773 38.136 96.4 39.3627 96.4 40.92C96.4 41.8587 96.208 42.7227 95.824 43.512C95.44 44.3013 94.8853 44.984 94.16 45.56C93.4347 46.1147 92.56 46.5413 91.536 46.84C90.512 47.1387 89.36 47.288 88.08 47.288ZM105.308 47.224C104.945 47.224 104.625 47.128 104.348 46.936C104.071 46.744 103.847 46.4347 103.676 46.008L98.908 33.048C98.78 32.6853 98.7373 32.3653 98.78 32.088C98.844 31.8107 98.9827 31.5973 99.196 31.448C99.4093 31.2987 99.676 31.224 99.996 31.224C100.316 31.224 100.572 31.2987 100.764 31.448C100.977 31.5973 101.148 31.8747 101.276 32.28L105.756 45.08H104.988L109.596 32.28C109.745 31.896 109.927 31.6293 110.14 31.48C110.375 31.3093 110.673 31.224 111.036 31.224C111.377 31.224 111.665 31.3093 111.9 31.48C112.135 31.6507 112.316 31.9173 112.444 32.28L116.956 45.08H116.22L120.764 32.216C120.913 31.832 121.095 31.576 121.308 31.448C121.521 31.2987 121.777 31.224 122.076 31.224C122.417 31.224 122.673 31.3093 122.844 31.48C123.036 31.6507 123.143 31.8747 123.164 32.152C123.185 32.4293 123.132 32.728 123.004 33.048L118.236 46.008C118.087 46.4133 117.863 46.7227 117.564 46.936C117.287 47.128 116.967 47.224 116.604 47.224C116.241 47.224 115.921 47.128 115.644 46.936C115.367 46.7227 115.153 46.4133 115.004 46.008L110.268 33.016H111.644L106.94 46.008C106.791 46.4133 106.577 46.7227 106.3 46.936C106.023 47.128 105.692 47.224 105.308 47.224ZM133.628 47.288C131.985 47.288 130.566 46.968 129.372 46.328C128.198 45.6667 127.281 44.7387 126.62 43.544C125.98 42.3493 125.66 40.92 125.66 39.256C125.66 37.6347 125.98 36.2267 126.62 35.032C127.26 33.816 128.134 32.8667 129.244 32.184C130.374 31.5013 131.676 31.16 133.148 31.16C134.193 31.16 135.132 31.3413 135.964 31.704C136.796 32.0453 137.5 32.5467 138.076 33.208C138.673 33.8693 139.121 34.6693 139.42 35.608C139.74 36.5467 139.9 37.6027 139.9 38.776C139.9 39.1173 139.804 39.3733 139.612 39.544C139.42 39.6933 139.142 39.768 138.78 39.768H127.644V38.072H138.172L137.66 38.488C137.66 37.336 137.489 36.3653 137.148 35.576C136.806 34.7653 136.305 34.1467 135.644 33.72C135.004 33.2933 134.193 33.08 133.212 33.08C132.124 33.08 131.196 33.336 130.428 33.848C129.681 34.3387 129.116 35.032 128.732 35.928C128.348 36.8027 128.156 37.8267 128.156 39V39.192C128.156 41.1547 128.625 42.648 129.564 43.672C130.524 44.696 131.878 45.208 133.628 45.208C134.353 45.208 135.068 45.112 135.772 44.92C136.497 44.728 137.201 44.408 137.884 43.96C138.182 43.768 138.449 43.6827 138.684 43.704C138.94 43.704 139.142 43.7787 139.292 43.928C139.441 44.056 139.537 44.2267 139.58 44.44C139.644 44.632 139.622 44.8453 139.516 45.08C139.43 45.3147 139.249 45.5173 138.972 45.688C138.268 46.2 137.436 46.5947 136.476 46.872C135.516 47.1493 134.566 47.288 133.628 47.288ZM148.387 47.288C146.851 47.288 145.677 46.8187 144.867 45.88C144.056 44.9413 143.651 43.5973 143.651 41.848V25.528C143.651 25.1013 143.757 24.7813 143.971 24.568C144.184 24.3333 144.504 24.216 144.931 24.216C145.336 24.216 145.656 24.3333 145.891 24.568C146.125 24.7813 146.243 25.1013 146.243 25.528V41.656C146.243 42.808 146.467 43.672 146.915 44.248C147.384 44.8027 148.067 45.08 148.963 45.08C149.155 45.08 149.325 45.0693 149.475 45.048C149.624 45.0267 149.773 45.016 149.923 45.016C150.157 44.9947 150.317 45.048 150.403 45.176C150.509 45.304 150.563 45.56 150.563 45.944C150.563 46.328 150.477 46.616 150.307 46.808C150.136 47 149.859 47.128 149.475 47.192C149.304 47.2133 149.123 47.2347 148.931 47.256C148.739 47.2773 148.557 47.288 148.387 47.288ZM157.856 47.288C156.32 47.288 155.146 46.8187 154.336 45.88C153.525 44.9413 153.12 43.5973 153.12 41.848V25.528C153.12 25.1013 153.226 24.7813 153.44 24.568C153.653 24.3333 153.973 24.216 154.4 24.216C154.805 24.216 155.125 24.3333 155.36 24.568C155.594 24.7813 155.712 25.1013 155.712 25.528V41.656C155.712 42.808 155.936 43.672 156.384 44.248C156.853 44.8027 157.536 45.08 158.432 45.08C158.624 45.08 158.794 45.0693 158.944 45.048C159.093 45.0267 159.242 45.016 159.392 45.016C159.626 44.9947 159.786 45.048 159.872 45.176C159.978 45.304 160.032 45.56 160.032 45.944C160.032 46.328 159.946 46.616 159.776 46.808C159.605 47 159.328 47.128 158.944 47.192C158.773 47.2133 158.592 47.2347 158.4 47.256C158.208 47.2773 158.026 47.288 157.856 47.288ZM168.896 47.288C167.381 47.288 166.069 46.9573 164.96 46.296C163.851 45.6347 162.987 44.7067 162.368 43.512C161.771 42.296 161.472 40.8667 161.472 39.224C161.472 37.9867 161.643 36.8773 161.984 35.896C162.325 34.8933 162.827 34.04 163.488 33.336C164.149 32.632 164.928 32.0987 165.824 31.736C166.741 31.352 167.765 31.16 168.896 31.16C170.411 31.16 171.723 31.4907 172.832 32.152C173.941 32.8133 174.795 33.752 175.392 34.968C176.011 36.1627 176.32 37.5813 176.32 39.224C176.32 40.4613 176.149 41.5707 175.808 42.552C175.467 43.5333 174.965 44.3867 174.304 45.112C173.643 45.816 172.853 46.36 171.936 46.744C171.04 47.1067 170.027 47.288 168.896 47.288ZM168.896 45.208C169.856 45.208 170.699 44.9733 171.424 44.504C172.149 44.0347 172.704 43.352 173.088 42.456C173.493 41.56 173.696 40.4827 173.696 39.224C173.696 37.2827 173.259 35.8 172.384 34.776C171.531 33.752 170.368 33.24 168.896 33.24C167.915 33.24 167.061 33.4747 166.336 33.944C165.632 34.392 165.077 35.064 164.672 35.96C164.288 36.8347 164.096 37.9227 164.096 39.224C164.096 41.144 164.533 42.6267 165.408 43.672C166.283 44.696 167.445 45.208 168.896 45.208Z" fill="#FCF2F2"/>
</svg>
