<svg
          class="w-10 h-10 absolute right-3 md:hidden block "
          fill="currentColor"
          viewBox="0 0 20 20"
          xmlns="http://www.w3.org/2000/svg"
          id="burger"
          onClick={() => {
            showMenu(!menu);
          }}
        >
          <path
            fill-rule="evenodd"
            d="M3 5a1 1 0 011-1h12a1 1 0 110 2H4a1 1 0 01-1-1zM3 10a1 1 0 011-1h6a1 1 0 110 2H4a1 1 0 01-1-1zM3 15a1 1 0 011-1h12a1 1 0 110 2H4a1 1 0 01-1-1z"
            clip-rule="evenodd"
          ></path>
        </svg>